<?xml version="1.0" encoding="iso-8859-1"?>
<!-- Generator: Adobe Illustrator 19.0.0, SVG Export Plug-In . SVG Version: 6.00 Build 0)  -->
<svg version="1.1" id="Capa_1" xmlns="http://www.w3.org/2000/svg" xmlns:xlink="http://www.w3.org/1999/xlink" x="0px" y="0px"
	 viewBox="0 0 512 512" style="enable-background:new 0 0 512 512;" xml:space="preserve">
<g>
	<g>
		<path d="M256,0c-47.128,0-85.333,38.205-85.333,85.333v64c0.053,47.106,38.227,85.28,85.333,85.333
			c47.106-0.053,85.28-38.227,85.333-85.333v-64C341.333,38.205,303.128,0,256,0z M320,149.333c0,35.346-28.654,64-64,64
			s-64-28.654-64-64v-64c0.035-35.332,28.668-63.965,64-64c35.332,0.035,63.965,28.668,64,64V149.333z"/>
	</g>
</g>
<g>
	<g>
		<path d="M373.739,279.755l-75.072-38.933v-27.488h-21.333v33.973c0,3.985,2.221,7.639,5.76,9.472l80.832,41.888
			c25.183,11.339,41.386,36.382,41.408,64v128H106.667v-128c0.022-27.618,16.225-52.661,41.408-64l80.832-41.888
			c3.539-1.833,5.76-5.487,5.76-9.472v-33.973h-21.333v27.488l-75.072,38.933c-32.355,14.891-53.041,47.296-52.928,82.912v138.667
			C85.333,507.224,90.109,512,96,512h320c5.891,0,10.667-4.776,10.667-10.667V362.667
			C426.779,327.05,406.093,294.645,373.739,279.755z"/>
	</g>
</g>
<g>
	<g>
		<rect x="138.667" y="426.667" width="21.333" height="74.667"/>
	</g>
</g>
<g>
	<g>
		<rect x="352" y="426.667" width="21.333" height="74.667"/>
	</g>
</g>
<g>
	<g>
		<path d="M234.667,96C224.597,96,224,74.88,224,74.667h-10.667h-10.667c0,14.752,6.688,42.667,32,42.667h96V96H234.667z"/>
	</g>
</g>
<g>
	<g>
		<path d="M266.667,74.667H256h-10.667c0,14.752,6.688,42.667,32,42.667V96C267.264,96,266.667,74.88,266.667,74.667z"/>
	</g>
</g>
<g>
	<g>
		<path d="M309.333,74.667h-10.667H288c0,14.752,6.688,42.667,32,42.667V96C309.931,96,309.333,74.88,309.333,74.667z"/>
	</g>
</g>
<g>
	<g>
		<path d="M277.333,245.333c0,11.782-9.551,21.333-21.333,21.333s-21.333-9.551-21.333-21.333h-21.333
			C213.333,268.897,232.436,288,256,288s42.667-19.103,42.667-42.667H277.333z"/>
	</g>
</g>
<g>
	<g>
		<path d="M327.544,259.128c-4.165-4.166-10.919-4.167-15.085-0.002l-33.472,33.472l-14.112-21.184l-17.749,11.84l21.333,32
			c0.389,0.583,0.835,1.127,1.331,1.623c4.166,4.165,10.92,4.165,15.085-0.001l24.459-24.459v208.917h21.333V266.667
			C330.666,263.839,329.543,261.127,327.544,259.128z"/>
	</g>
</g>
<g>
	<g>
		<path d="M247.125,271.413l-14.112,21.184l-33.472-33.472c-2-1.999-4.711-3.122-7.539-3.123
			c-5.891-0.001-10.668,4.773-10.669,10.664v234.667h21.333V292.416l24.459,24.459c0.496,0.496,1.039,0.942,1.623,1.331
			c4.9,3.27,11.523,1.948,14.793-2.952l21.333-32L247.125,271.413z"/>
	</g>
</g>
<g>
	<g>
		<path d="M312.459,355.125L256,411.584l-56.459-56.459l-15.083,15.083l64,64c2,2.001,4.713,3.125,7.541,3.125
			c2.829-0.001,5.541-1.125,7.541-3.125l64-64L312.459,355.125z"/>
	</g>
</g>
<g>
	<g>
		
			<rect x="186.335" y="341.322" transform="matrix(0.124 -0.9923 0.9923 0.124 -148.383 535.8933)" width="85.995" height="21.333"/>
	</g>
</g>
<g>
	<g>
		<rect x="271.994" y="309.007" transform="matrix(0.9923 -0.124 0.124 0.9923 -41.4768 37.7767)" width="21.333" height="85.995"/>
	</g>
</g>
<g>
	<g>
		<rect x="245.333" y="426.667" width="21.333" height="74.667"/>
	</g>
</g>
<g>
</g>
<g>
</g>
<g>
</g>
<g>
</g>
<g>
</g>
<g>
</g>
<g>
</g>
<g>
</g>
<g>
</g>
<g>
</g>
<g>
</g>
<g>
</g>
<g>
</g>
<g>
</g>
<g>
</g>
</svg>
